<?xml version="1.0" encoding="utf-8"?>
<!-- Generator: Adobe Illustrator 25.0.0, SVG Export Plug-In . SVG Version: 6.00 Build 0)  -->
<svg version="1.1" id="Layer_1" xmlns="http://www.w3.org/2000/svg" xmlns:xlink="http://www.w3.org/1999/xlink" x="0px" y="0px"
	 viewBox="0 0 62.4 71.3" style="enable-background:new 0 0 62.4 71.3;" xml:space="preserve">
<style type="text/css">
	.st0{fill:#BFD0E0;}
</style>
<path class="st0" d="M61.5,16H1C0.4,16,0,15.6,0,15.1v-3.3c0-0.5,0.4-0.9,0.9-0.9h60.5c0.5,0,0.9,0.4,0.9,0.9v3.3
	C62.2,15.6,61.9,16,61.5,16z M61.5,38.1H1c-0.5,0-0.9-0.4-0.9-0.9v-3.3C0,33.4,0.4,33,1,33l0,0h60.5c0.5,0,0.9,0.4,0.9,0.9l0,0v3.3
	C62.2,37.8,61.9,38.1,61.5,38.1z M61.5,60.5H1c-0.5,0-0.9-0.5-0.9-0.9v-3.3c0-0.5,0.4-0.9,0.9-0.9h60.5c0.5,0,0.9,0.4,0.9,0.9v3.3
	C62.2,59.9,61.9,60.5,61.5,60.5z"/>
</svg>
