<?xml version="1.0" encoding="utf-8"?>
<!-- Generator: Adobe Illustrator 25.0.0, SVG Export Plug-In . SVG Version: 6.00 Build 0)  -->
<svg version="1.1" id="Layer_1" xmlns="http://www.w3.org/2000/svg" xmlns:xlink="http://www.w3.org/1999/xlink" x="0px" y="0px"
	 viewBox="0 0 62.4 62.4" style="enable-background:new 0 0 62.4 62.4;" xml:space="preserve">
<style type="text/css">
	.st0{fill:#BFD0E0;}
</style>
<path class="st0" d="M47.8,5.7c8.7,5.4,14.5,15,14.5,25.9c0,16.9-13.9,30.6-31.1,30.7C14.1,62.4,0,48.6,0,31.7
	c0-10.9,5.8-20.6,14.5-26c0.7-0.5,1.7-0.2,2.1,0.5l0.5,0.9c0.4,0.7,0.2,1.6-0.5,2C9,13.9,4,22.2,4,31.7c0,14.8,12.2,26.7,27.2,26.7
	c15.1,0,27.2-12,27.2-26.7c0-9.5-5-17.8-12.6-22.6c-0.7-0.4-0.9-1.3-0.5-2l0.5-0.9C46.1,5.5,47.1,5.3,47.8,5.7z M33.2,34.2V1.5
	c0-0.8-0.7-1.5-1.5-1.5h-1c-0.8,0-1.5,0.7-1.5,1.5v32.7c0,0.8,0.7,1.5,1.5,1.5h1C32.5,35.6,33.2,35,33.2,34.2z"/>
</svg>
